<?xml version="1.0" encoding="utf-8"?>
<!-- Generator: Adobe Illustrator 23.0.2, SVG Export Plug-In . SVG Version: 6.00 Build 0)  -->
<svg version="1.2" baseProfile="tiny" id="Layer_1" xmlns="http://www.w3.org/2000/svg" xmlns:xlink="http://www.w3.org/1999/xlink"
	 x="0px" y="0px" viewBox="0 0 792 165.5" xml:space="preserve">
<g>
	<path fill="#323E48" d="M144.1,0c11.7,0,21.3,9.6,21.3,21.3s-9.6,21.3-21.3,21.3c-11.7,0-21.3-9.6-21.3-21.3S132.4,0,144.1,0z
		 M162.2,55.4v107.2h-36.4V55.4H162.2z"/>
	<path fill="#323E48" d="M395.8,137.3c-6.3,13.6-21.7,28.2-48.3,28.2c-32.8,0-58.3-23-58.3-56.2c0-30.5,20.3-57.7,56-57.7
		c36.2,0,55.8,27.8,55.4,62.1v4h-75.4c0,10.4,9.2,20.5,22.6,20.5c9.6,0,15.7-4.8,19.6-11.9L395.8,137.3z M325.2,94.9h39.5
		c-1.7-8.4-7.9-16.1-19.4-16.1C332.7,78.8,326.4,86.7,325.2,94.9z"/>
	<path fill="#323E48" d="M55.5,165.5C24.8,165.5,0,140.7,0,110c0-30.6,24.8-55.5,55.5-55.5h10v35.6h-10c-11,0-19.9,8.9-19.9,19.9
		s8.9,19.9,19.9,19.9S75.4,121,75.4,110V58.3V2.9l35.6,0V110C111,140.7,86.1,165.5,55.5,165.5z"/>
	<path fill="#323E48" d="M257.3,55.4l-25.2,58.9l-25.2-58.9h-39.3l45.6,98.3c3.4,7.2,10.6,11.9,18.6,11.9c0.1,0,0.2,0,0.3,0
		c0.1,0,0.2,0,0.3,0c8,0,15.2-4.6,18.6-11.9l45.6-98.3H257.3z"/>
	<path fill="#323E48" d="M618.8,51.6c-30.6,0-55.5,24.8-55.5,55.5s24.8,55.5,55.5,55.5h10V127h-10c-11,0-19.9-8.9-19.9-19.9
		s8.9-19.9,19.9-19.9s19.9,8.9,19.9,19.9v51.7v3.7h35.6v-55.5C674.3,76.5,649.5,51.6,618.8,51.6z"/>
	<polygon fill="#323E48" points="563.3,55.4 524.2,55.4 504,86.9 504,86.9 455.3,162.6 558.5,162.6 558.5,131 515.1,131 	"/>
	<polygon fill="#FF4D00" points="752.8,55.4 684.2,162.6 723.5,162.6 792,55.4 	"/>
	<rect x="410.2" y="55.4" fill="#323E48" width="35.6" height="107.2"/>
	<path fill="#323E48" d="M472,51.6c11.7,0,21.3,9.6,21.3,21.3s-9.6,21.3-21.3,21.3c-11.7,0-21.3-9.6-21.3-21.3S460.3,51.6,472,51.6z
		"/>
</g>
</svg>
